HIERARCHY
ROOT ROOT
{
	OFFSET 0.000000 56.020000 -5.659234
	CHANNELS 6 Xposition Yposition Zposition Xrotation Yrotation Zrotation 
	JOINT C_spine0001_bind_JNT
	{
		OFFSET 0.000000 1.618999 0.000000
		CHANNELS 3 Xrotation Yrotation Zrotation
		JOINT C_spine0002_bind_JNT
		{
			OFFSET 0.000000 4.942001 0.000001
			CHANNELS 3 Xrotation Yrotation Zrotation
			JOINT C_spine0003_bind_JNT
			{
				OFFSET 0.000000 4.942001 -0.000000
				CHANNELS 3 Xrotation Yrotation Zrotation
				JOINT C_neck0001_bind_JNT
				{
					OFFSET 0.000000 17.026009 -0.000000
					CHANNELS 3 Xrotation Yrotation Zrotation
					JOINT C_neck0002_bind_JNT
					{
						OFFSET 0.000000 3.249985 0.000000
						CHANNELS 3 Xrotation Yrotation Zrotation
						JOINT C_head_bind_JNT
						{
							OFFSET 0.000000 5.278008 0.000000
							CHANNELS 3 Xrotation Yrotation Zrotation
							End Site
							{
								OFFSET 0.000000 0.000000 0.000000
							}
						}
					}
				}
				JOINT L_clavicle_bind_JNT
				{
					OFFSET 4.590000 12.067001 0.834000
					CHANNELS 3 Xrotation Yrotation Zrotation
					JOINT L_armUpper0001_bind_JNT
					{
						OFFSET 7.812635 0.512001 -3.452945
						CHANNELS 3 Xrotation Yrotation Zrotation
						JOINT L_armLower0001_bind_JNT
						{
							OFFSET 15.265892 -6.552116 -0.058157
							CHANNELS 3 Xrotation Yrotation Zrotation
							JOINT L_hand0001_bind_JNT
							{
								OFFSET 14.747667 -6.369995 5.049225
								CHANNELS 3 Xrotation Yrotation Zrotation
								End Site
								{
									OFFSET 0.000000 0.000000 0.000000
								}
							}
						}
					}
				}
				JOINT R_clavicle_bind_JNT
				{
					OFFSET -4.590000 12.067001 0.834000
					CHANNELS 3 Xrotation Yrotation Zrotation
					JOINT R_armUpper0001_bind_JNT
					{
						OFFSET -7.812635 0.512001 -3.452945
						CHANNELS 3 Xrotation Yrotation Zrotation
						JOINT R_armLower0001_bind_JNT
						{
							OFFSET -15.265890 -6.552124 -0.058160
							CHANNELS 3 Xrotation Yrotation Zrotation
							JOINT R_hand0001_bind_JNT
							{
								OFFSET -14.746784 -6.369629 5.048937
								CHANNELS 3 Xrotation Yrotation Zrotation
								End Site
								{
									OFFSET 0.000000 0.000000 0.000000
								}
							}
						}
					}
				}
			}
		}
	}
	JOINT C_pelvis0001_bind_JNT
	{
		OFFSET -0.000000 0.000000 0.000000
		CHANNELS 3 Xrotation Yrotation Zrotation
		JOINT L_legUpper0001_bind_JNT
		{
			OFFSET 6.599999 -6.027000 0.539000
			CHANNELS 3 Xrotation Yrotation Zrotation
			JOINT L_legLower0001_bind_JNT
			{
				OFFSET -0.140713 -19.187443 0.040261
				CHANNELS 3 Xrotation Yrotation Zrotation
				JOINT L_foot0001_bind_JNT
				{
					OFFSET -0.132215 -18.028637 -1.138370
					CHANNELS 3 Xrotation Yrotation Zrotation
					JOINT L_foot0002_bind_JNT
					{
						OFFSET 0.007014 -4.693133 9.886524
						CHANNELS 3 Xrotation Yrotation Zrotation
						End Site
						{
							OFFSET 0.000000 0.000000 0.000000
						}
					}
				}
			}
		}
		JOINT R_legUpper0001_bind_JNT
		{
			OFFSET -6.599999 -6.027000 0.539000
			CHANNELS 3 Xrotation Yrotation Zrotation
			JOINT R_legLower0001_bind_JNT
			{
				OFFSET 0.140710 -19.187164 0.040550
				CHANNELS 3 Xrotation Yrotation Zrotation
				JOINT R_foot0001_bind_JNT
				{
					OFFSET 0.132215 -18.028633 -1.138362
					CHANNELS 3 Xrotation Yrotation Zrotation
					JOINT R_foot0002_bind_JNT
					{
						OFFSET -0.007014 -4.693128 9.886505
						CHANNELS 3 Xrotation Yrotation Zrotation
						End Site
						{
							OFFSET 0.000000 0.000000 0.000000
						}
					}
				}
			}
		}
	}
}
MOTION
Frames: 16
Frame Time: 0.033333
38.301277 44.840412 95.416763 0.039744 19.406031 -0.042503 -2.718179 10.832281 -12.590484 17.743036 -2.688583 -2.299751 8.679887 -1.412514 -0.880926 -2.224101 -0.442050 -5.531104 2.202815 0.881314 -0.715516 22.638655 8.773691 13.200572 -7.615081 3.787089 6.318194 -23.363270 1.903839 -48.394848 -29.560289 -18.887123 -21.865828 24.552927 -27.170948 16.546301 -7.191972 -7.630168 2.562824 -0.832134 -13.969752 45.591026 6.641409 5.594002 0.361191 3.115494 25.822977 26.499189 0.586230 9.797194 -13.123399 -27.371080 -0.614631 12.538001 64.647392 -5.915897 8.220679 -30.087723 -7.658300 -1.565110 -7.768785 0.307250 0.107710 -60.556358 -0.017005 -7.022286 108.763672 3.562198 13.809016 -6.001962 1.645249 5.198589 5.972931 -0.061706 -0.507289 
38.221592 44.754772 96.175217 0.047626 19.635183 -0.051472 -2.699086 11.123826 -12.221045 18.173239 -3.269797 -1.972995 8.865610 -2.115386 -0.796283 -2.177966 -0.320079 -5.243570 2.207491 1.648270 -0.526781 22.249399 8.250549 12.883150 -7.929428 3.548667 6.108986 -24.030388 1.425484 -48.624710 -30.069954 -19.666067 -21.864794 25.067677 -27.275221 17.019939 -7.676771 -7.507806 2.616074 0.282958 -14.601919 45.744694 5.720319 4.738918 0.412071 3.220444 25.744087 26.648388 0.843220 10.057133 -12.668972 -27.272825 -0.648912 12.163727 66.234062 -5.831023 9.113269 -31.740345 -7.422521 -2.210866 -8.224988 0.178709 0.187014 -62.156876 -0.210241 -7.176723 100.527161 0.851343 14.623704 -3.194774 2.237088 5.142066 3.903353 0.364343 -0.004322 
38.087128 44.545540 97.074608 0.031447 19.617409 -0.050313 -2.409107 11.117812 -12.012136 18.523270 -3.524117 -1.613419 8.816416 -2.160686 -0.606710 -2.193852 -0.511276 -5.285433 2.215966 2.186338 -0.476843 21.922918 7.749357 12.263900 -7.691191 3.245582 6.048563 -25.225878 0.731302 -49.038132 -30.348267 -20.283445 -21.594578 24.469189 -27.588070 16.614258 -7.466045 -7.985064 2.586136 0.963274 -15.588200 45.946644 5.150189 4.963775 0.234459 3.366127 25.734224 26.537317 1.183928 10.081562 -12.010581 -26.973204 -0.330860 12.382104 66.610916 -6.375337 9.373955 -32.572426 -7.305971 -2.622551 -8.776387 0.068354 0.118863 -62.861778 -0.649112 -6.097056 90.840157 -2.001148 14.465530 -1.959404 2.017422 4.829287 3.330892 0.068510 0.813780 
37.997204 44.243378 98.175102 0.049538 19.745884 -0.052714 -1.819138 11.398653 -11.554018 19.135572 -4.109430 -1.243135 9.051992 -2.617074 -0.576019 -2.220551 -0.501223 -5.066295 1.970740 2.952940 -0.342057 21.088036 7.077836 11.751740 -8.143728 3.172919 5.949240 -25.804138 0.168466 -48.794685 -30.626846 -20.716095 -21.911940 23.988344 -27.885458 16.593254 -7.998174 -7.814213 2.425036 1.976848 -16.017366 46.691422 3.734680 4.422056 0.293433 4.438773 25.928417 26.310404 1.697832 10.384623 -11.005753 -26.701851 -0.009605 11.515873 68.167610 -6.478430 10.338491 -34.477039 -6.942667 -3.108100 -9.161555 -0.096724 -0.244859 -61.890568 -1.320810 -5.501003 77.538979 -5.463061 12.731434 1.835801 2.970255 5.642694 2.413953 -0.091526 0.808906 
37.833481 43.891171 99.474640 0.029645 19.293661 -0.036368 -0.743154 11.737178 -10.801661 19.225334 -4.166113 -1.209929 9.171125 -2.715206 -0.438758 -2.273511 -0.481244 -5.212546 2.087485 3.074669 -0.338071 20.788433 6.441458 11.132173 -7.799903 2.720383 6.023715 -27.031406 -0.364674 -49.013851 -31.154720 -20.623287 -21.959322 22.971510 -28.554028 15.608520 -7.968132 -8.481658 2.462350 2.518819 -16.583511 47.184902 3.254412 4.167263 -0.293101 4.741924 26.043512 26.393093 2.759801 10.988688 -10.051567 -26.704721 0.343670 11.203200 68.689499 -6.883201 11.104416 -35.353073 -6.749036 -3.701077 -10.217087 -0.281807 -0.441393 -60.629967 -1.853722 -4.448538 64.407166 -7.710657 9.733266 2.746881 3.007625 6.607258 0.969368 -0.491614 1.239796 
37.621693 43.492741 100.983482 0.039044 18.095009 -0.050185 0.485750 13.150173 -9.886919 19.563560 -4.439940 -1.183346 9.249900 -2.753804 -0.469221 -2.270991 -0.473579 -4.744894 2.021863 2.948399 -0.288731 19.505497 5.725763 10.714189 -8.246936 2.014911 5.651917 -27.364588 -1.141086 -48.422050 -31.613209 -21.168955 -22.679611 21.893059 -29.117163 15.227981 -8.218414 -9.036608 2.309063 3.416813 -16.907824 48.307919 1.960111 3.897874 -0.851260 5.203354 26.409170 26.538336 4.016747 12.428907 -9.109493 -26.245472 0.414734 11.125549 68.594223 -6.479991 11.478900 -36.169823 -7.336449 -4.763773 -11.417731 -0.790343 -0.779478 -59.074268 -2.178984 -3.851542 52.429482 -8.451583 6.858823 4.787386 2.846322 7.683459 -0.383498 -0.209098 0.843025 
37.348122 43.192196 102.541183 0.027726 16.269590 -0.033758 1.612444 15.065743 -9.027336 20.193623 -4.455251 -1.154034 9.254915 -3.067487 -0.199744 -2.454817 -0.484003 -5.128134 1.961190 3.038441 0.014339 18.835449 4.756035 10.138318 -8.166225 1.331748 5.236623 -28.498856 -2.003749 -48.077000 -32.608307 -20.889894 -22.942032 21.112305 -30.052608 13.840244 -8.272282 -9.327279 2.247947 3.725020 -17.846663 49.115799 1.905431 3.356563 -1.741002 5.101996 27.251640 27.238890 5.304530 14.457544 -8.545966 -25.721462 0.682291 11.454349 67.672783 -6.874738 12.463061 -35.762508 -8.010039 -6.136643 -13.094391 -0.564638 -1.021539 -58.215168 -2.214256 -3.197576 43.385792 -7.895983 4.434112 5.996710 2.570965 7.945680 -0.595835 -0.367479 0.768301 
37.160442 42.826725 104.210495 0.029589 14.278469 -0.023283 2.946971 17.773949 -8.145531 20.757454 -4.830984 -0.789883 9.507112 -3.276165 -0.328885 -2.466746 -0.440044 -4.291774 1.827708 2.410984 -0.145330 17.749580 3.623698 9.992338 -8.364513 -0.082332 5.001606 -29.265928 -2.690703 -46.754997 -33.573452 -20.579609 -24.370378 20.104296 -30.686949 12.764332 -8.632362 -9.810002 2.541133 4.381330 -18.314720 50.180794 0.975052 2.628735 -2.386324 5.081531 28.005066 28.096039 6.683717 17.114857 -7.986639 -24.597336 0.511709 11.343098 66.219551 -6.510968 12.999405 -35.382179 -8.698730 -7.344949 -14.913126 -0.834086 -1.545696 -58.096485 -2.022168 -3.534828 38.862392 -6.919657 3.237106 7.255565 2.504780 7.871564 -0.413176 0.742028 -0.098784 
37.033356 42.528984 106.012863 0.026292 12.183207 -0.033880 4.537858 20.591280 -7.834699 21.085093 -5.175256 -0.123134 9.836329 -3.728743 0.190706 -2.426778 -0.290507 -4.467497 1.896377 1.955098 0.021227 16.541939 2.847882 9.397678 -8.439018 -1.373402 4.464869 -29.991400 -3.131257 -45.835045 -34.919949 -19.856464 -25.133150 19.183994 -31.483120 11.091249 -8.651435 -9.854184 2.233510 4.286602 -18.873598 50.855518 1.340506 1.554143 -3.081283 4.296445 28.945299 29.808077 8.020994 20.120775 -7.834332 -23.268822 0.187877 11.829244 64.303101 -6.715598 13.762108 -34.247276 -9.689142 -8.869473 -17.186485 -0.843059 -1.686763 -59.419472 -1.807727 -3.976950 37.882523 -6.318910 2.502107 8.634647 2.821651 5.957391 0.068580 0.842298 -0.255889 
37.099796 42.245476 108.017479 0.027467 9.797614 -0.026903 6.251662 24.176867 -8.135006 21.766718 -5.611138 1.236683 9.937332 -4.145804 0.578286 -1.938871 -0.432210 -3.965243 1.906522 1.639739 0.384173 14.428357 2.058761 8.767431 -8.589315 -2.989972 4.129771 -30.587036 -4.352740 -44.802963 -35.947845 -19.077433 -25.449842 17.364693 -33.096085 8.473561 -8.287204 -10.099633 2.181349 4.289229 -19.061357 51.754551 0.815550 1.190855 -3.449279 5.018385 29.316401 31.166807 9.706675 23.747688 -7.923280 -21.037922 -0.264085 12.076179 61.032799 -6.689883 13.825655 -33.006023 -10.668406 -10.186785 -19.624058 -1.064003 -1.849626 -61.133728 -1.552761 -4.525785 38.844505 -6.077070 2.295317 10.513835 2.852289 4.413204 -0.122672 0.906725 -0.497817 
37.277328 41.907330 110.102409 0.019003 7.559650 -0.035429 7.921959 27.607225 -8.654045 22.492876 -6.262622 2.793117 10.564083 -4.552359 1.195842 -2.130755 -0.489799 -3.576541 1.880592 1.233682 0.514403 12.284679 1.730525 7.950484 -8.986672 -4.507024 4.181414 -31.027071 -5.106574 -44.420322 -37.155399 -19.023819 -25.887547 15.899585 -33.992260 6.498706 -8.627093 -9.670460 2.107016 3.746702 -19.393064 52.173779 1.036859 0.555546 -3.912263 4.816376 30.004951 32.134449 11.272282 27.198679 -8.264824 -18.636827 -0.929786 12.759918 58.178947 -7.005692 13.863224 -31.521553 -11.355361 -10.889369 -22.260286 -0.837673 -2.372582 -63.108444 -1.425075 -4.848697 41.548698 -5.832821 2.284507 10.046111 2.204599 2.975840 0.140428 0.740535 -0.162887 
37.571121 41.621723 112.115776 0.011488 5.586505 -0.044504 9.828769 30.317726 -9.460455 22.958790 -6.425766 4.395904 10.580431 -4.998149 1.781657 -1.387818 -0.637536 -3.237224 1.760944 0.987158 0.980866 10.375655 1.236446 7.150280 -9.082662 -5.793755 4.496778 -31.543861 -6.429326 -44.349453 -38.102398 -18.876087 -25.867676 14.042117 -35.007938 3.410275 -7.936333 -9.959155 2.311053 2.529469 -18.943836 52.355896 1.070334 0.065858 -4.326417 5.464238 30.475510 33.828659 12.991836 30.064022 -8.618443 -15.797761 -1.187438 13.257829 53.802784 -7.198171 13.427596 -29.964878 -12.241905 -11.738380 -24.098303 -0.580841 -2.522730 -64.679314 -0.654361 -5.216241 44.519264 -5.988157 2.541522 9.245634 1.478048 1.957021 -0.241101 0.557158 -0.123320 
37.896458 41.345001 114.021660 0.014522 4.229324 -0.036647 11.597915 32.292179 -10.323769 23.319267 -6.622194 5.913281 11.157810 -5.272552 2.529063 -1.387402 -0.610536 -3.096212 1.892349 0.469268 1.168066 8.444180 1.170910 6.252544 -9.499315 -7.220771 4.691383 -32.511543 -7.310693 -44.289017 -38.608799 -18.594360 -25.978983 11.934032 -35.287769 0.990137 -7.954944 -9.852723 2.168127 1.728263 -18.302977 52.740845 0.867053 -0.532443 -4.615570 5.698190 30.998371 34.594646 14.772120 31.859362 -9.635118 -14.024579 -1.177245 14.266292 51.124413 -7.294673 13.453910 -27.999899 -12.650632 -11.955119 -26.757565 -0.590733 -3.161771 -66.504135 -0.711960 -4.859807 47.556744 -6.517217 2.820492 7.021080 0.573029 1.082481 -0.052603 0.556733 -0.053177 
38.260185 41.212265 115.880379 0.015231 3.321072 -0.039521 13.407099 33.710583 -11.060598 23.792572 -6.469145 7.464509 10.989392 -5.414522 3.299191 -0.739965 -0.946484 -2.736544 1.807019 0.337982 1.378295 6.697206 0.671427 5.703654 -9.870095 -8.715226 5.127086 -33.463848 -8.217159 -44.621006 -38.743732 -18.051485 -25.485933 8.527779 -36.020847 -3.153934 -7.511796 -10.208650 2.430182 0.334132 -17.667982 52.589176 0.676481 -0.548768 -4.778430 5.715258 31.044048 35.430244 16.842964 33.514095 -10.624964 -11.485983 -1.366440 15.204538 46.624306 -7.743977 13.041284 -25.923998 -13.360695 -12.290206 -28.674337 -0.238886 -3.278496 -68.084488 -0.450823 -4.746882 51.166962 -6.811971 3.270398 3.827782 -0.020419 0.479535 -0.375070 0.380113 -0.036243 
38.635387 41.161247 117.580551 0.013525 2.410366 -0.040988 14.993405 34.666443 -11.951480 24.009342 -6.239287 8.957361 11.411386 -5.506005 3.925219 -0.901252 -0.780301 -2.501195 2.169915 -0.008469 1.430917 4.872007 0.298811 5.142272 -10.452938 -9.534589 5.830144 -34.716679 -9.005591 -45.278229 -39.082634 -17.873207 -25.618361 6.679459 -36.355606 -5.602156 -7.598552 -9.770656 2.432551 -0.865118 -16.660143 52.310104 -0.088593 -1.063118 -4.523158 5.767150 31.296991 35.645817 18.671268 34.332577 -11.873434 -10.378331 -1.243758 16.173277 44.584820 -7.463198 12.894055 -23.956549 -13.696086 -12.330559 -31.068708 -0.405729 -3.666492 -69.429359 -0.543752 -4.083019 54.064297 -6.428568 3.632496 1.126559 -0.909592 -0.199376 -0.369509 0.443869 -0.076821 
39.079411 41.311382 119.362656 0.004746 1.410048 -0.052095 16.506290 35.268208 -12.607939 24.221779 -5.835197 10.108550 11.184823 -5.470410 4.583865 -0.585616 -0.866146 -2.256413 2.070064 0.545530 1.284599 3.387808 -0.392303 4.517669 -10.345407 -10.392377 6.484832 -35.440552 -8.894082 -46.104004 -39.501968 -18.311129 -25.695345 4.395078 -36.882572 -8.974533 -7.192705 -9.601718 2.163179 -2.369629 -15.474245 52.189011 -0.638252 -1.205006 -4.169827 5.433150 31.331223 35.419571 20.718975 35.107231 -13.253540 -8.803185 -1.146924 17.051470 41.990589 -7.074548 12.409188 -21.527489 -14.436010 -12.790136 -33.082718 -0.434831 -3.091621 -70.440811 -0.942529 -3.367185 56.962849 -6.396467 3.921758 -2.133022 -1.158975 -0.779836 -0.622645 0.117822 0.105514 
